<?xml version="1.0" encoding="UTF-8"?>
<svg version="1.1" xmlns="http://www.w3.org/2000/svg" width="1281" height="301">
<path d="M0 0 C11.22 0 22.44 0 34 0 C44.49274331 22.2518522 54.94325373 44.51688065 65.1484375 66.90234375 C65.65850342 68.0197998 66.16856934 69.13725586 66.6940918 70.28857422 C67.66905705 72.42594286 68.64196994 74.56424922 69.61254883 76.70361328 C70.25873169 78.1206958 70.25873169 78.1206958 70.91796875 79.56640625 C71.48680786 80.81852905 71.48680786 80.81852905 72.06713867 82.09594727 C72.85382237 83.96178476 72.85382237 83.96178476 74 85 C74.38518799 84.1241626 74.77037598 83.2483252 75.16723633 82.34594727 C83.36030794 63.73572751 91.69401149 45.19645071 100.25 26.75 C100.86350815 25.42598679 100.86350815 25.42598679 101.4894104 24.07522583 C102.66303472 21.54411027 103.83877976 19.0139944 105.015625 16.484375 C105.35983994 15.74301804 105.70405487 15.00166107 106.05870056 14.23783875 C106.38769852 13.53254532 106.71669647 12.82725189 107.05566406 12.10058594 C107.3360553 11.49857361 107.61644653 10.89656128 107.90533447 10.27630615 C109.56229936 6.83072458 111.29017165 3.41965671 113 0 C123.89 0 134.78 0 146 0 C146 1.32 146 2.64 146 4 C144.98679688 4.03867188 144.98679688 4.03867188 143.953125 4.078125 C138.34742465 4.36175869 138.34742465 4.36175869 133.4375 6.8125 C130.49666672 11.28768107 130.85171633 16.05318903 130.85473633 21.25341797 C130.85137772 22.08317139 130.8480191 22.9129248 130.84455872 23.76782227 C130.83506423 26.5092926 130.83310635 29.25070175 130.83203125 31.9921875 C130.82881761 33.90023829 130.82545346 35.80828884 130.82194519 37.71633911 C130.81595767 41.71600923 130.8141049 45.71565775 130.81469727 49.71533203 C130.81479886 54.83542441 130.80114745 59.95537804 130.78392506 65.07543755 C130.77279569 69.01657749 130.77077835 72.95768399 130.77130699 76.89883804 C130.77012826 78.78624067 130.76571249 80.6736442 130.75797462 82.56103134 C130.74815596 85.20338352 130.7510602 87.84543576 130.75708008 90.48779297 C130.75146057 91.26410065 130.74584106 92.04040833 130.74005127 92.84024048 C130.7656281 97.26770306 131.23505771 100.92370501 133 105 C136.95954574 108.3772596 140.98793934 108.5752491 146 109 C146 110.32 146 111.64 146 113 C129.83 113 113.66 113 97 113 C97 111.68 97 110.36 97 109 C98.13888672 108.83564453 98.13888672 108.83564453 99.30078125 108.66796875 C100.29464844 108.50941406 101.28851563 108.35085937 102.3125 108.1875 C103.29863281 108.03667969 104.28476563 107.88585937 105.30078125 107.73046875 C108.16330631 106.95580567 109.20620675 106.30464699 111 104 C112.50252915 100.9949417 112.12992759 97.90743067 112.11352539 94.61279297 C112.11367142 93.85172241 112.11381744 93.09065186 112.1139679 92.30651855 C112.11326993 89.78504611 112.10548294 87.26364708 112.09765625 84.7421875 C112.09579166 82.99626709 112.09436795 81.25034616 112.09336853 79.50442505 C112.08954659 74.90454672 112.07971905 70.30469986 112.06866455 65.70483398 C112.05844349 61.0128624 112.05386942 56.32088575 112.04882812 51.62890625 C112.03809651 42.41925699 112.02102394 33.20963111 112 24 C111.56277115 24.95715408 111.1255423 25.91430817 110.67506409 26.90046692 C96.08330588 58.84174625 96.08330588 58.84174625 90.96484375 69.94921875 C90.61716949 70.70397491 90.26949524 71.45873108 89.9112854 72.23635864 C88.57929512 75.12718575 87.24677318 78.01776411 85.91235352 80.9074707 C85.22453816 82.39743998 84.5374902 83.88776376 83.85122681 85.37844849 C83.18892987 86.81633289 82.52459763 88.25328199 81.85800171 89.68917847 C80.19440257 93.29546029 78.6101524 96.91619763 77.12548828 100.60009766 C76.82083145 101.34185745 76.51617462 102.08361725 76.20228577 102.84785461 C75.62620113 104.26008904 75.06587981 105.67889236 74.52415466 107.10466003 C73.74047852 109.01098633 73.74047852 109.01098633 72 112 C69.29272461 112.9362793 69.29272461 112.9362793 67 113 C58.10897947 94.76297599 49.63433424 76.35730876 41.29260254 57.86462402 C39.66431194 54.25605896 38.03483405 50.64803075 36.40527344 47.04003906 C36.0875894 46.3366572 35.76990536 45.63327534 35.44259453 44.90857887 C34.79442814 43.47348687 34.14625957 42.03839586 33.49808884 40.60330582 C31.93009514 37.13158235 30.36226046 33.65978709 28.79443359 30.18798828 C28.25644135 28.9966629 27.7184491 27.80533752 27.16415405 26.57791138 C26.77998322 25.72720062 26.39581238 24.87648987 26 24 C25.95367168 34.10083446 25.91812825 44.20164367 25.89637566 54.30256271 C25.88593583 58.99276226 25.87177295 63.68288915 25.84912109 68.37304688 C25.82739988 72.89880335 25.81543287 77.42448991 25.81024551 81.95029449 C25.80654847 83.67747346 25.79932912 85.40464857 25.78853989 87.13179779 C25.77403455 89.54986357 25.77202165 91.96763994 25.77294922 94.38574219 C25.76575867 95.10071869 25.75856812 95.81569519 25.75115967 96.55233765 C25.76623163 100.18037437 25.88354016 102.97592504 28 106 C32.08556803 108.28311154 36.41735395 108.5339682 41 109 C41 110.32 41 111.64 41 113 C27.47 113 13.94 113 0 113 C0 111.68 0 110.36 0 109 C0.75925781 108.87882812 1.51851563 108.75765625 2.30078125 108.6328125 C3.29464844 108.46523437 4.28851563 108.29765625 5.3125 108.125 C6.29863281 107.96257812 7.28476563 107.80015625 8.30078125 107.6328125 C11.20059827 107.11914546 11.20059827 107.11914546 14 105 C15.2967825 101.10965251 15.13923651 97.42362077 15.12939453 93.36938477 C15.13114685 92.48779694 15.13289917 91.60620911 15.13470459 90.69790649 C15.13911151 87.77905315 15.13618892 84.86026023 15.1328125 81.94140625 C15.13348593 79.91503386 15.13445629 77.88866154 15.13571167 75.86228943 C15.13718712 71.61285636 15.13503919 67.3634443 15.13037109 63.11401367 C15.12467754 57.66528174 15.12795142 52.21659911 15.13394356 46.767869 C15.13755637 42.58232756 15.13640719 38.39679782 15.13381577 34.21125603 C15.13314831 32.20218843 15.13396862 30.19311978 15.13629532 28.18405342 C15.13883321 25.37601026 15.13496495 22.56804698 15.12939453 19.76000977 C15.13141876 18.9281868 15.13344299 18.09636383 15.13552856 17.23933411 C15.13229987 12.03469469 15.13229987 12.03469469 14 7 C9.76872954 4.48768316 4.80831419 4.39807394 0 4 C0 2.68 0 1.36 0 0 Z " fill="#0E7B3D" transform="translate(92,95)"/>
<path d="M0 0 C2.34936523 0.20288086 2.34936523 0.20288086 5 1 C6.35180664 3.01391602 6.35180664 3.01391602 7.41015625 5.75390625 C8.0436499 7.34114502 8.0436499 7.34114502 8.68994141 8.96044922 C9.14288574 10.14912598 9.59583008 11.33780273 10.0625 12.5625 C10.56189546 13.82663232 11.0637727 15.08978648 11.56787109 16.35205078 C12.41015634 18.46159072 13.25084708 20.57164873 14.08508301 22.68438721 C17.86933572 32.25716745 21.85228467 41.74770708 25.81930542 51.24581909 C27.08878027 54.2881971 28.35368965 57.33243417 29.61743164 60.37719727 C31.64747214 65.26363187 33.69205891 70.14375975 35.7467041 75.01989746 C36.60405296 77.05851221 37.45763702 79.09871325 38.3079834 81.14025879 C39.60833364 84.25714257 40.92358862 87.36736183 42.2421875 90.4765625 C42.63068878 91.41527191 43.01919006 92.35398132 43.41946411 93.32113647 C46.15098048 99.70329273 49.28177098 106.9077855 55.5546875 110.4375 C56.70324219 110.7159375 56.70324219 110.7159375 57.875 111 C58.65617187 111.20625 59.43734375 111.4125 60.2421875 111.625 C61.11230469 111.810625 61.11230469 111.810625 62 112 C62 113.32 62 114.64 62 116 C47.15 116 32.3 116 17 116 C17 114.68 17 113.36 17 112 C17.63808594 111.79503906 18.27617187 111.59007812 18.93359375 111.37890625 C19.75988281 111.10949219 20.58617187 110.84007812 21.4375 110.5625 C22.26121094 110.29566406 23.08492188 110.02882813 23.93359375 109.75390625 C25.96219588 109.17844506 25.96219588 109.17844506 27 108 C27.82982503 101.12565401 25.19335913 95.78096377 22.5 89.5625 C21.015 86.076875 19.53 82.59125 18 79 C4.14 79 -9.72 79 -24 79 C-25.464375 82.34125 -26.92875 85.6825 -28.4375 89.125 C-28.89825928 90.16672363 -29.35901855 91.20844727 -29.83374023 92.28173828 C-32.76643326 98.90745096 -32.76643326 98.90745096 -34 106 C-31.83626889 109.38670957 -29.49987896 110.29088353 -25.75 111.25 C-24.5125 111.4975 -23.275 111.745 -22 112 C-22 113.32 -22 114.64 -22 116 C-33.88 116 -45.76 116 -58 116 C-58 114.68 -58 113.36 -58 112 C-57.41992188 111.81566406 -56.83984375 111.63132812 -56.2421875 111.44140625 C-55.46101562 111.15136719 -54.67984375 110.86132812 -53.875 110.5625 C-53.10929688 110.29566406 -52.34359375 110.02882813 -51.5546875 109.75390625 C-43.18640449 104.00870889 -39.86536192 92.33794767 -36.0625 83.3125 C-35.38852843 81.73247315 -34.71369649 80.15281306 -34.03808594 78.57348633 C-32.12032831 74.08358166 -30.21446385 69.58870954 -28.31060791 65.09289551 C-24.83462691 56.88994942 -21.34506852 48.6927602 -17.85717773 40.49487305 C-15.80668406 35.67528792 -13.76108416 30.85366889 -11.71899414 26.03051758 C-10.7658425 23.78464474 -9.81263848 21.53879412 -8.859375 19.29296875 C-8.42767502 18.27040985 -7.99597504 17.24785095 -7.55119324 16.19430542 C-5.21184863 10.69117454 -2.7377336 5.31667235 0 0 Z M-3 28 C-5.56599514 33.96205395 -8.12920014 39.92530156 -10.69042969 45.8894043 C-11.56282726 47.91995682 -12.43587326 49.95023088 -13.30957031 51.98022461 C-14.56223701 54.8910414 -15.81260039 57.8028379 -17.0625 60.71484375 C-17.45622803 61.6283812 -17.84995605 62.54191864 -18.25561523 63.48313904 C-18.61598877 64.32393509 -18.9763623 65.16473114 -19.34765625 66.03100586 C-19.66742432 66.77491074 -19.98719238 67.51881561 -20.31665039 68.28526306 C-21.06170029 69.84717782 -21.06170029 69.84717782 -21 71 C-9.12 71 2.76 71 15 71 C13.16384126 65.49152377 11.37331628 60.27259377 9.15234375 54.953125 C8.8949794 54.33403259 8.63761505 53.71494019 8.37245178 53.0770874 C7.56375953 51.13347598 6.75078167 49.19169485 5.9375 47.25 C5.12165494 45.29361466 4.30669381 43.33686286 3.49183655 41.38006592 C2.75629758 39.61509596 2.01871262 37.85097905 1.28100586 36.08691406 C0.16571606 33.39933558 -0.92691077 30.70465183 -2 28 C-2.33 28 -2.66 28 -3 28 Z " fill="#0E7B3D" transform="translate(300,92)"/>
<path d="M0 0 C1.01449219 -0.00773437 2.02898437 -0.01546875 3.07421875 -0.0234375 C4.05519531 -0.02085938 5.03617187 -0.01828125 6.046875 -0.015625 C6.92698242 -0.01336914 7.80708984 -0.01111328 8.71386719 -0.00878906 C11.52126318 0.27767992 13.68896626 1.09195735 16.25 2.25 C16.25 2.58 16.25 2.91 16.25 3.25 C15.26902344 3.26417969 14.28804688 3.27835937 13.27734375 3.29296875 C-2.89819735 3.7658078 -17.37001635 8.28244875 -29.5 19.5 C-40.3537841 31.13463187 -46.37699226 46.38382287 -45.99609375 62.26953125 C-44.77137596 77.10222452 -39.3612319 90.6387681 -28.75 101.25 C-14.57325664 113.02008136 0.99354336 117.70175732 19.25 116.25 C28.15511853 114.73228986 35.37265151 111.43785296 42.921875 106.54296875 C44.07429688 105.90294922 44.07429688 105.90294922 45.25 105.25 C45.91 105.58 46.57 105.91 47.25 106.25 C37.18428784 118.00375084 22.51600188 125.18392456 7.25 127.25 C-11.20855263 128.49830567 -28.21460494 124.63746837 -42.56713867 112.34033203 C-55.4247083 100.76227294 -63.37218777 85.63667811 -64.75 68.25 C-64.80414063 67.60804688 -64.85828125 66.96609375 -64.9140625 66.3046875 C-65.64985192 48.71263138 -58.77428975 31.85611477 -47.29296875 18.71484375 C-33.97939601 5.81029014 -18.33703943 -0.14196418 0 0 Z " fill="#0E7B3D" transform="translate(419.75,81.75)"/>
<path d="M0 0 C0.33 1.98 0.66 3.96 1 6 C2.19496094 5.33291016 2.19496094 5.33291016 3.4140625 4.65234375 C4.47367188 4.08644531 5.53328125 3.52054687 6.625 2.9375 C7.66914062 2.36902344 8.71328125 1.80054687 9.7890625 1.21484375 C13.43802239 -0.1657238 15.28787199 -0.05907975 19 1 C20.75 2.4375 20.75 2.4375 22 4 C22.66 4.66 23.32 5.32 24 6 C24.78503906 5.55527344 25.57007813 5.11054687 26.37890625 4.65234375 C36.03999721 -0.55160586 36.03999721 -0.55160586 40.0625 -0.1875 C43.83442376 1.33732024 44.35929536 2.28831947 46 6 C46.47222855 9.4121728 46.55656728 12.80881164 46.625 16.25 C46.67577714 18.06782177 46.73025845 19.88554518 46.7890625 21.703125 C46.80662598 22.50395508 46.82418945 23.30478516 46.84228516 24.12988281 C46.79862966 26.01369073 46.79862966 26.01369073 48 27 C49.66617115 27.04063832 51.33388095 27.042721 53 27 C53.08687496 23.87517438 53.14034568 20.75065754 53.1875 17.625 C53.21263672 16.73554687 53.23777344 15.84609375 53.26367188 14.9296875 C53.27333984 14.07890625 53.28300781 13.228125 53.29296875 12.3515625 C53.3086792 11.56604004 53.32438965 10.78051758 53.34057617 9.97119141 C53.22818604 9.32069824 53.1157959 8.67020508 53 8 C52.01 7.34 51.02 6.68 50 6 C51 3 51 3 52.671875 2.05078125 C56.56333025 0.66829057 59.80183483 -0.39357798 64 0 C64.495 2.97 64.495 2.97 65 6 C65.4846875 5.65066406 65.969375 5.30132812 66.46875 4.94140625 C71.3925534 1.59890125 74.98699571 -0.09857384 81 0 C84 1.75 84 1.75 86 4 C86 4.99 86 5.98 86 7 C86.76183594 6.49339844 86.76183594 6.49339844 87.5390625 5.9765625 C97.03241895 -0.17456359 97.03241895 -0.17456359 103.1875 0.1875 C106.11879972 1.03431992 107.26343592 1.53225104 109 4 C109.87141565 6.86251024 110.17536834 9.56493052 110.31640625 12.546875 C110.35830078 13.39121094 110.40019531 14.23554687 110.44335938 15.10546875 C110.48267578 15.97816406 110.52199219 16.85085937 110.5625 17.75 C110.60568359 18.63816406 110.64886719 19.52632812 110.69335938 20.44140625 C110.79913615 22.62745963 110.90122546 24.81362089 111 27 C112.485 27.495 112.485 27.495 114 28 C114 28.99 114 29.98 114 31 C108.06 31 102.12 31 96 31 C96 30.01 96 29.02 96 28 C96.99 27.34 97.98 26.68 99 26 C99.41480107 23.97112689 99.41480107 23.97112689 99.29296875 21.6484375 C99.28330078 20.79765625 99.27363281 19.946875 99.26367188 19.0703125 C99.23853516 18.18085938 99.21339844 17.29140625 99.1875 16.375 C99.17396484 15.4778125 99.16042969 14.580625 99.14648438 13.65625 C99.11106925 11.43690211 99.06168461 9.21874812 99 7 C93.19217364 8.26467106 93.19217364 8.26467106 88 11 C87.69604994 13.59847505 87.5813692 15.90639107 87.625 18.5 C87.61339844 19.18964844 87.60179687 19.87929687 87.58984375 20.58984375 C87.56610192 22.83359087 87.56610192 22.83359087 88 26 C88.99 26.66 89.98 27.32 91 28 C91 28.99 91 29.98 91 31 C85.06 31 79.12 31 73 31 C73 30.01 73 29.02 73 28 C73.99 27.67 74.98 27.34 76 27 C76 20.4 76 13.8 76 7 C68.56056066 8.38338327 68.56056066 8.38338327 65 11 C64.77862607 13.62697064 64.71837975 16.00893964 64.8125 18.625 C64.82603516 19.33140625 64.83957031 20.0378125 64.85351562 20.765625 C64.8888896 22.51074128 64.94269779 24.25546608 65 26 C66.32 26.66 67.64 27.32 69 28 C69 28.99 69 29.98 69 31 C57.12 31 45.24 31 33 31 C34 27 34 27 35.05078125 25.09375 C36.25316918 22.44156923 36.23134022 20.40142563 36.1875 17.5 C36.17783203 16.09234375 36.17783203 16.09234375 36.16796875 14.65625 C36.01857816 12.29379415 35.66710889 10.26283335 35 8 C30.35802494 7.67614127 27.60840191 7.9556004 24 11 C23.53215731 13.76088743 23.38597637 15.82334147 23.5 18.5625 C23.49742187 19.24763672 23.49484375 19.93277344 23.4921875 20.63867188 C23.49668852 22.86744358 23.49668852 22.86744358 24 26 C24.99 26.66 25.98 27.32 27 28 C27 28.99 27 29.98 27 31 C21.39 31 15.78 31 10 31 C10 30.01 10 29.02 10 28 C10.48984375 27.5875 10.9796875 27.175 11.484375 26.75 C13.84847485 24.0203177 13.32347738 21.52691409 13.25 18 C13.23453125 16.7625 13.2190625 15.525 13.203125 14.25 C13.13874802 10.9888529 13.13874802 10.9888529 12 8 C7.36347524 7.67652153 4.59378749 7.94042416 1 11 C0.61939949 13.78599571 0.52037095 15.93372751 0.6875 18.6875 C0.71005859 19.38939453 0.73261719 20.09128906 0.75585938 20.81445312 C0.81468353 22.5438833 0.90436611 24.27221438 1 26 C2.32 26.66 3.64 27.32 5 28 C5 28.99 5 29.98 5 31 C-1.27 31 -7.54 31 -14 31 C-14 30.01 -14 29.02 -14 28 C-13.01 27.67 -12.02 27.34 -11 27 C-9.42685816 23.85371632 -9.73303674 20.51418512 -9.6875 17.0625 C-9.65849609 16.33353516 -9.62949219 15.60457031 -9.59960938 14.85351562 C-9.52641859 12.45108067 -9.52641859 12.45108067 -10 9 C-11.85819484 6.9489085 -11.85819484 6.9489085 -14 6 C-13.67 5.01 -13.34 4.02 -13 3 C-11.07421875 2.05078125 -11.07421875 2.05078125 -8.6875 1.3125 C-7.90761719 1.06113281 -7.12773438 0.80976562 -6.32421875 0.55078125 C-4 0 -4 0 0 0 Z " fill="#0E7B3D" transform="translate(920,110)"/>
<path d="M0 0 C1 3 1 3 0.4375 5.5 C-0.33822518 8.2399734 -0.33822518 8.2399734 2 11 C2 12.32 2 13.64 2 15 C3.98 15.33 5.96 15.66 8 16 C7.86722656 16.58007812 7.73445313 17.16015625 7.59765625 17.7578125 C6.08187944 24.33905002 6.08187944 24.33905002 5 31 C6.96822886 32.96822886 10.34808709 32.66248381 13 33 C12.12988281 33.63808594 12.12988281 33.63808594 11.2421875 34.2890625 C9.11898501 35.90920656 7.12186673 37.60268053 5.125 39.375 C4.43019531 39.98214844 3.73539062 40.58929688 3.01953125 41.21484375 C1.77358148 42.31619586 0.53907146 43.43084463 -0.67578125 44.56640625 C-4.43133302 47.97260436 -4.43133302 47.97260436 -7.67578125 48.12890625 C-8.44277344 48.08636719 -9.20976562 48.04382813 -10 48 C-9.67386719 48.92039063 -9.34773438 49.84078125 -9.01171875 50.7890625 C-6.00239745 59.44849107 -3.70983462 67.97818967 -2 77 C-0.68 77.33 0.64 77.66 2 78 C1.505 79.485 1.505 79.485 1 81 C-3.1511012 79.09273729 -4.57399165 77.26774642 -6.25708008 73.07495117 C-7.59689141 69.3329017 -8.65276142 65.52322276 -9.6875 61.6875 C-9.91244141 60.87732422 -10.13738281 60.06714844 -10.36914062 59.23242188 C-12 53.2790416 -12 53.2790416 -12 51 C-12.66 51 -13.32 51 -14 51 C-14.20625 51.763125 -14.4125 52.52625 -14.625 53.3125 C-16.49196769 56.96157321 -18.18613475 57.58745731 -22 59 C-25.65888437 59.71241038 -29.26941037 60 -33 60 C-32.34 58.68 -31.68 57.36 -31 56 C-32.91315119 53.42380724 -33.9016314 53.01604768 -37.13671875 52.48828125 C-38.89435547 52.40126953 -38.89435547 52.40126953 -40.6875 52.3125 C-41.86699219 52.24675781 -43.04648437 52.18101562 -44.26171875 52.11328125 C-45.16535156 52.07589844 -46.06898438 52.03851563 -47 52 C-46.01 51.505 -46.01 51.505 -45 51 C-45 49.35 -45 47.7 -45 46 C-45.78375 45.7525 -46.5675 45.505 -47.375 45.25 C-50.44548487 43.78786435 -50.6449201 42.98117578 -52 40 C-54.03317007 38.26574227 -54.03317007 38.26574227 -56 37 C-55.09507812 36.85304688 -55.09507812 36.85304688 -54.171875 36.703125 C-49.06326155 35.7473199 -46.60712188 34.87431609 -43 31 C-40.9375 31.3125 -40.9375 31.3125 -39 32 C-38.01 31.67 -37.02 31.34 -36 31 C-37.59043379 25.91061189 -40.7446951 22.12543357 -44 18 C-42.68 17.34 -41.36 16.68 -40 16 C-40.33 13.69 -40.66 11.38 -41 9 C-40.01 9 -39.02 9 -38 9 C-38.66 6.69 -39.32 4.38 -40 2 C-39.32904297 2.52400391 -39.32904297 2.52400391 -38.64453125 3.05859375 C-33.829839 6.75606091 -33.829839 6.75606091 -28 8 C-26.64801166 7.37202727 -25.31110808 6.70937848 -24 6 C-23.60167969 6.69867188 -23.20335937 7.39734375 -22.79296875 8.1171875 C-22.26316406 9.02726562 -21.73335938 9.93734375 -21.1875 10.875 C-20.40439453 12.23238281 -20.40439453 12.23238281 -19.60546875 13.6171875 C-18.06266201 16.23273183 -18.06266201 16.23273183 -15 18 C-14.71125 17.4225 -14.4225 16.845 -14.125 16.25 C-13.75375 15.5075 -13.3825 14.765 -13 14 C-12.7525 13.34 -12.505 12.68 -12.25 12 C-10.44902373 9.11843797 -7.81300904 7.87533936 -5 6 C-3.18399129 4.08493627 -1.61727019 2.0929379 0 0 Z " fill="#ED1C24" transform="translate(446,101)"/>
<path d="M0 0 C0.33 1.98 0.66 3.96 1 6 C1.4846875 5.65066406 1.969375 5.30132812 2.46875 4.94140625 C7.3925534 1.59890125 10.98699571 -0.09857384 17 0 C20 1.75 20 1.75 22 4 C22 4.99 22 5.98 22 7 C22.76183594 6.49339844 22.76183594 6.49339844 23.5390625 5.9765625 C33.03241895 -0.17456359 33.03241895 -0.17456359 39.1875 0.1875 C42.11879972 1.03431992 43.26343592 1.53225104 45 4 C45.87141565 6.86251024 46.17536834 9.56493052 46.31640625 12.546875 C46.35830078 13.39121094 46.40019531 14.23554687 46.44335938 15.10546875 C46.48267578 15.97816406 46.52199219 16.85085937 46.5625 17.75 C46.60568359 18.63816406 46.64886719 19.52632812 46.69335938 20.44140625 C46.79913615 22.62745963 46.90122546 24.81362089 47 27 C48.98 27 50.96 27 53 27 C53.08687496 23.87517438 53.14034568 20.75065754 53.1875 17.625 C53.21263672 16.73554687 53.23777344 15.84609375 53.26367188 14.9296875 C53.27333984 14.07890625 53.28300781 13.228125 53.29296875 12.3515625 C53.3086792 11.56604004 53.32438965 10.78051758 53.34057617 9.97119141 C53.22818604 9.32069824 53.1157959 8.67020508 53 8 C52.01 7.34 51.02 6.68 50 6 C50 5.01 50 4.02 50 3 C51.39235043 2.49038154 52.78909118 1.99275091 54.1875 1.5 C54.96480469 1.2215625 55.74210938 0.943125 56.54296875 0.65625 C59.13805606 -0.03687348 61.32732563 -0.04671827 64 0 C64.01458252 0.77714355 64.02916504 1.55428711 64.04418945 2.35498047 C64.11846978 5.86216688 64.21519589 9.3683801 64.3125 12.875 C64.33505859 14.09832031 64.35761719 15.32164063 64.38085938 16.58203125 C64.41630859 17.74863281 64.45175781 18.91523438 64.48828125 20.1171875 C64.51446533 21.19597168 64.54064941 22.27475586 64.56762695 23.38623047 C64.78165161 24.68004639 64.78165161 24.68004639 65 26 C65.99 26.66 66.98 27.32 68 28 C68 28.99 68 29.98 68 31 C56.12 31 44.24 31 32 31 C32 30.01 32 29.02 32 28 C32.99 27.34 33.98 26.68 35 26 C35.41480107 23.97112689 35.41480107 23.97112689 35.29296875 21.6484375 C35.28330078 20.79765625 35.27363281 19.946875 35.26367188 19.0703125 C35.23853516 18.18085938 35.21339844 17.29140625 35.1875 16.375 C35.17396484 15.4778125 35.16042969 14.580625 35.14648438 13.65625 C35.11106925 11.43690211 35.06168461 9.21874812 35 7 C29.19217364 8.26467106 29.19217364 8.26467106 24 11 C23.69604994 13.59847505 23.5813692 15.90639107 23.625 18.5 C23.61339844 19.18964844 23.60179687 19.87929687 23.58984375 20.58984375 C23.56610192 22.83359087 23.56610192 22.83359087 24 26 C24.99 26.66 25.98 27.32 27 28 C27 28.99 27 29.98 27 31 C21.06 31 15.12 31 9 31 C9 30.01 9 29.02 9 28 C9.99 27.67 10.98 27.34 12 27 C12 20.4 12 13.8 12 7 C4.56056066 8.38338327 4.56056066 8.38338327 1 11 C0.77862607 13.62697064 0.71837975 16.00893964 0.8125 18.625 C0.82603516 19.33140625 0.83957031 20.0378125 0.85351562 20.765625 C0.8888896 22.51074128 0.94269779 24.25546608 1 26 C2.32 26.66 3.64 27.32 5 28 C5 28.99 5 29.98 5 31 C-1.27 31 -7.54 31 -14 31 C-14 30.01 -14 29.02 -14 28 C-13.01 27.67 -12.02 27.34 -11 27 C-10.91312504 23.87517438 -10.85965432 20.75065754 -10.8125 17.625 C-10.78736328 16.73554687 -10.76222656 15.84609375 -10.73632812 14.9296875 C-10.72666016 14.07890625 -10.71699219 13.228125 -10.70703125 12.3515625 C-10.6913208 11.56604004 -10.67561035 10.78051758 -10.65942383 9.97119141 C-10.77181396 9.32069824 -10.8842041 8.67020508 -11 8 C-11.99 7.34 -12.98 6.68 -14 6 C-13 3 -13 3 -11.328125 2.05078125 C-7.43666975 0.66829057 -4.19816517 -0.39357798 0 0 Z " fill="#0E7B3D" transform="translate(693,110)"/>
<path d="M0 0 C0.33 1.32 0.66 2.64 1 4 C1.65226562 3.69964844 2.30453125 3.39929688 2.9765625 3.08984375 C12.13925816 -0.89687486 12.13925816 -0.89687486 17 1 C19.64281521 3.86760093 20.38124368 5.82753821 20.4765625 9.6953125 C20.5075 10.57574219 20.5384375 11.45617187 20.5703125 12.36328125 C20.58835937 13.27464844 20.60640625 14.18601562 20.625 15.125 C20.67591764 16.94021383 20.73042875 18.75533152 20.7890625 20.5703125 C20.80662598 21.37227051 20.82418945 22.17422852 20.84228516 23.00048828 C20.87980689 25.07252867 20.87980689 25.07252867 22 27 C23.66611905 27.042721 25.33382885 27.04063832 27 27 C28.19341752 26.02667739 28.19341752 26.02667739 28.11352539 24.23413086 C28.10828857 23.48526611 28.10305176 22.73640137 28.09765625 21.96484375 C28.09443359 21.15595703 28.09121094 20.34707031 28.08789062 19.51367188 C28.07951172 18.66353516 28.07113281 17.81339844 28.0625 16.9375 C28.05798828 16.08349609 28.05347656 15.22949219 28.04882812 14.34960938 C28.03700373 12.23304337 28.01906769 10.11651315 28 8 C26.68 7.34 25.36 6.68 24 6 C25 3 25 3 26.890625 2.05078125 C27.66921875 1.80714844 28.4478125 1.56351562 29.25 1.3125 C30.40242188 0.93544922 30.40242188 0.93544922 31.578125 0.55078125 C34 0 34 0 39 0 C39 8.91 39 17.82 39 27 C40.32 27.33 41.64 27.66 43 28 C43 28.99 43 29.98 43 31 C31.12 31 19.24 31 7 31 C7.33 29.68 7.66 28.36 8 27 C8.66 27 9.32 27 10 27 C10.02690104 24.20826945 10.04679053 21.41679652 10.0625 18.625 C10.07087891 17.8309375 10.07925781 17.036875 10.08789062 16.21875 C10.23040151 11.97607778 10.23040151 11.97607778 9 8 C4.85906302 7.79029441 4.85906302 7.79029441 1 9 C0.67 14.94 0.34 20.88 0 27 C1.32 27.33 2.64 27.66 4 28 C4 28.99 4 29.98 4 31 C-1.94 31 -7.88 31 -14 31 C-14 30.01 -14 29.02 -14 28 C-13.01 27.34 -12.02 26.68 -11 26 C-10.58571654 24.06923522 -10.58571654 24.06923522 -10.70703125 21.8671875 C-10.7215332 20.65869141 -10.7215332 20.65869141 -10.73632812 19.42578125 C-10.76146484 18.58402344 -10.78660156 17.74226563 -10.8125 16.875 C-10.82603516 16.02550781 -10.83957031 15.17601563 -10.85351562 14.30078125 C-10.88891781 12.20025163 -10.94272599 10.10004707 -11 8 C-12.32 7.34 -13.64 6.68 -15 6 C-14 3 -14 3 -12.109375 2.05078125 C-4.24325381 -0.41063747 -4.24325381 -0.41063747 0 0 Z " fill="#0E7B3D" transform="translate(1086,110)"/>
<path d="M0 0 C0.70745361 0.00418945 1.41490723 0.00837891 2.14379883 0.01269531 C8.84881635 0.1580029 13.0451291 1.52187738 18.8125 4.875 C23.70280541 10.02964625 26.41647663 15.79805688 26.625 22.9375 C26.18242684 30.99460118 23.97983019 36.32326908 18.0234375 41.83984375 C11.07757827 47.22788682 2.6277755 47.97986901 -5.875 47.3125 C-13.74723857 45.93017239 -19.35889023 42.97630139 -24.19140625 36.56640625 C-27.60920025 30.83832641 -27.82078 24.80741397 -26.875 18.3125 C-24.64276917 10.98831407 -20.63637151 5.93160663 -13.875 2.3125 C-9.23912391 0.40438127 -4.96390648 -0.03993205 0 0 Z M-12.1875 8.625 C-16.17949317 14.98261875 -16.9596331 21.44352658 -15.33984375 28.71484375 C-13.55459161 34.57788494 -11.36268138 38.67289182 -6.125 42.125 C-2.17926561 43.56671064 0.97802831 44.04918759 5.125 43.3125 C10.78462174 40.53608179 12.70028238 37.1980935 14.8125 31.4375 C15.84550444 24.41306979 15.25616009 17.74181538 12.125 11.3125 C8.82891136 7.21466007 5.5809489 4.77227334 0.5625 3.1875 C-4.78594377 3.38198886 -8.3922743 4.8297743 -12.1875 8.625 Z " fill="#0E7B3D" transform="translate(914.875,161.6875)"/>
<path d="M0 0 C0.99 0 1.98 0 3 0 C3 2.97 3 5.94 3 9 C11.91 9 20.82 9 30 9 C30 9.99 30 10.98 30 12 C29.01 12.33 28.02 12.66 27 13 C28.31061591 17.23429756 29.94356259 21.07407404 32 25 C35.17218843 21.37464179 36.42902597 17.48849722 38 13 C36.68 12.67 35.36 12.34 34 12 C34 11.01 34 10.02 34 9 C38.62 9 43.24 9 48 9 C48 9.99 48 10.98 48 12 C47.38435684 12.25435318 46.76871368 12.50870636 46.13441467 12.77076721 C43.67265943 14.18851902 43.06960214 15.14183363 41.84936523 17.66772461 C41.47895615 18.41867905 41.10854706 19.16963348 40.72691345 19.94334412 C40.34136795 20.754814 39.95582245 21.56628387 39.55859375 22.40234375 C39.14964371 23.23584854 38.74069366 24.06935333 38.3193512 24.92811584 C37.01388818 27.5924746 35.72472628 30.26428881 34.4375 32.9375 C33.14467907 35.60606121 31.84839144 38.27278828 30.54493713 40.93617249 C29.73465276 42.59343279 28.93080596 44.25385965 28.13414001 45.91770935 C27.76688309 46.67181595 27.39962616 47.42592255 27.02124023 48.20288086 C26.54303078 49.19643837 26.54303078 49.19643837 26.05516052 50.21006775 C24.89384425 52.18007839 23.76978133 53.55008341 22 55 C18.9375 55.3125 18.9375 55.3125 16 55 C14 53 14 53 13.6875 50.5 C13.790625 49.675 13.89375 48.85 14 48 C17 46 17 46 20 45.1875 C23.10925561 44.21725445 23.10925561 44.21725445 25 41.75 C26.70403459 37.06390488 24.09384 33.11670725 22.08984375 28.80078125 C21.37582367 27.30304852 20.65830563 25.80697893 19.9375 24.3125 C19.21592448 22.8093241 18.49581089 21.30544533 17.77734375 19.80078125 C17.46015381 19.14247314 17.14296387 18.48416504 16.81616211 17.8059082 C16 16 16 16 15 13 C14.505 13.165 14.01 13.33 13.5 13.5 C11 14 11 14 3 14 C3.33 20.6 3.66 27.2 4 34 C8.81115706 32.27468064 8.81115706 32.27468064 12 30 C12.33 31.32 12.66 32.64 13 34 C8.78355954 38.01076043 6.08109825 40 0 40 C-2.94755732 38.65437601 -4.54277272 37.91445456 -6 35 C-6.08400529 33.40552536 -6.10727467 31.80759455 -6.09765625 30.2109375 C-6.09282227 28.79941406 -6.09282227 28.79941406 -6.08789062 27.359375 C-6.07951172 26.37453125 -6.07113281 25.3896875 -6.0625 24.375 C-6.05798828 23.38242188 -6.05347656 22.38984375 -6.04882812 21.3671875 C-6.03702145 18.9113984 -6.020554 16.45572896 -6 14 C-7.32 14 -8.64 14 -10 14 C-9.44359561 10.46340225 -8.3768247 9.15316318 -5.5625 7 C-2.82247636 4.89492965 -1.36828322 3.19036892 0 0 Z " fill="#0E7B3D" transform="translate(1140,102)"/>
<path d="M0 0 C2.01108917 0.55317063 2.01108917 0.55317063 4.83984375 0.4375 C4.83984375 4.7275 4.83984375 9.0175 4.83984375 13.4375 C3.51984375 13.4375 2.19984375 13.4375 0.83984375 13.4375 C0.30359375 12.344375 -0.23265625 11.25125 -0.78515625 10.125 C-3.0045919 6.32575773 -4.82493895 4.72200883 -9.16015625 3.4375 C-14.04045868 3.18315199 -18.57154629 3.53814853 -22.59765625 6.5 C-26.91776594 11.45232086 -28.80123534 16.68342731 -28.51171875 23.35546875 C-27.62035315 28.63433389 -25.5100954 33.05203614 -21.78515625 36.875 C-16.33210382 40.12086454 -12.39305742 40.99572529 -6.16015625 39.4375 C-2.59816848 37.51950658 -0.60065515 36.18295968 1.46484375 32.6875 C1.91859375 31.945 2.37234375 31.2025 2.83984375 30.4375 C4.15984375 30.4375 5.47984375 30.4375 6.83984375 30.4375 C6.55556958 32.02217728 6.26209557 33.6052057 5.96484375 35.1875 C5.80242188 36.06921875 5.64 36.9509375 5.47265625 37.859375 C4.36244592 42.38245413 4.36244592 42.38245413 2.83984375 44.4375 C0.37109375 45.046875 0.37109375 45.046875 -2.66015625 45.1875 C-3.74167969 45.23777344 -4.82320312 45.28804687 -5.9375 45.33984375 C-7.53271484 45.38818359 -7.53271484 45.38818359 -9.16015625 45.4375 C-10.02769531 45.50066406 -10.89523437 45.56382812 -11.7890625 45.62890625 C-19.24308953 45.99981289 -26.2273659 44.33157523 -32.3046875 39.859375 C-37.76504219 34.7553803 -40.26641138 29.50476653 -40.59765625 22 C-40.34062538 14.48441737 -37.86981945 9.78516202 -32.47265625 4.625 C-23.01694632 -3.00225773 -11.38629926 -3.0533093 0 0 Z " fill="#0E7B3D" transform="translate(623.16015625,163.5625)"/>
<path d="M0 0 C2.01108917 0.55317063 2.01108917 0.55317063 4.83984375 0.4375 C4.83984375 4.7275 4.83984375 9.0175 4.83984375 13.4375 C3.51984375 13.4375 2.19984375 13.4375 0.83984375 13.4375 C0.30359375 12.344375 -0.23265625 11.25125 -0.78515625 10.125 C-3.0045919 6.32575773 -4.82493895 4.72200883 -9.16015625 3.4375 C-14.04045868 3.18315199 -18.57154629 3.53814853 -22.59765625 6.5 C-26.91776594 11.45232086 -28.80123534 16.68342731 -28.51171875 23.35546875 C-27.62035315 28.63433389 -25.5100954 33.05203614 -21.78515625 36.875 C-16.33210382 40.12086454 -12.39305742 40.99572529 -6.16015625 39.4375 C-2.59816848 37.51950658 -0.60065515 36.18295968 1.46484375 32.6875 C1.91859375 31.945 2.37234375 31.2025 2.83984375 30.4375 C4.15984375 30.4375 5.47984375 30.4375 6.83984375 30.4375 C6.55556958 32.02217728 6.26209557 33.6052057 5.96484375 35.1875 C5.80242188 36.06921875 5.64 36.9509375 5.47265625 37.859375 C4.36244592 42.38245413 4.36244592 42.38245413 2.83984375 44.4375 C0.37109375 45.046875 0.37109375 45.046875 -2.66015625 45.1875 C-3.74167969 45.23777344 -4.82320312 45.28804687 -5.9375 45.33984375 C-7.53271484 45.38818359 -7.53271484 45.38818359 -9.16015625 45.4375 C-10.02769531 45.50066406 -10.89523437 45.56382812 -11.7890625 45.62890625 C-19.24308953 45.99981289 -26.2273659 44.33157523 -32.3046875 39.859375 C-37.76504219 34.7553803 -40.26641138 29.50476653 -40.59765625 22 C-40.34062538 14.48441737 -37.86981945 9.78516202 -32.47265625 4.625 C-23.01694632 -3.00225773 -11.38629926 -3.0533093 0 0 Z " fill="#0E7B3D" transform="translate(859.16015625,96.5625)"/>
<path d="M0 0 C0 1.65 0 3.3 0 5 C0.71285156 4.62746094 1.42570313 4.25492188 2.16015625 3.87109375 C10.9697634 -0.4803542 10.9697634 -0.4803542 15 -0.125 C18 1 18 1 19.65625 2.93359375 C21.90850375 8.07318442 21.47268414 13.4188426 21.52734375 18.95898438 C21.54925781 19.83232422 21.57117188 20.70566406 21.59375 21.60546875 C21.60083984 22.40106201 21.60792969 23.19665527 21.61523438 24.01635742 C21.74220703 24.67095947 21.86917969 25.32556152 22 26 C22.99 26.66 23.98 27.32 25 28 C25 28.99 25 29.98 25 31 C19.39 31 13.78 31 8 31 C9 27 9 27 10.05078125 25.12890625 C11.30874072 22.30755682 11.22943848 20.01425927 11.1875 16.9375 C11.18105469 15.89464844 11.17460938 14.85179687 11.16796875 13.77734375 C11.11482965 10.91385392 11.11482965 10.91385392 10 8 C6.45134864 7.91934883 3.41610225 8.05685873 0 9 C0.14053872 11.62538284 0.28718947 14.25017427 0.4375 16.875 C0.47681641 17.62136719 0.51613281 18.36773437 0.55664062 19.13671875 C0.71573624 23.19986864 0.71573624 23.19986864 2 27 C2.99 27.33 3.98 27.66 5 28 C5 28.99 5 29.98 5 31 C-1.27 31 -7.54 31 -14 31 C-14 30.01 -14 29.02 -14 28 C-12.68 27.34 -11.36 26.68 -10 26 C-10 20.06 -10 14.12 -10 8 C-11.32 7.34 -12.64 6.68 -14 6 C-14 5.01 -14 4.02 -14 3 C-12.4188708 2.49307308 -10.83498617 1.99473557 -9.25 1.5 C-7.92742188 1.08234375 -7.92742188 1.08234375 -6.578125 0.65625 C-4 0 -4 0 0 0 Z " fill="#0E7B3D" transform="translate(957,177)"/>
<path d="M0 0 C0 1.65 0 3.3 0 5 C0.71285156 4.62746094 1.42570313 4.25492188 2.16015625 3.87109375 C10.9697634 -0.4803542 10.9697634 -0.4803542 15 -0.125 C18 1 18 1 19.65625 2.93359375 C21.90850375 8.07318442 21.47268414 13.4188426 21.52734375 18.95898438 C21.54925781 19.83232422 21.57117188 20.70566406 21.59375 21.60546875 C21.60083984 22.40106201 21.60792969 23.19665527 21.61523438 24.01635742 C21.74220703 24.67095947 21.86917969 25.32556152 22 26 C22.99 26.66 23.98 27.32 25 28 C25 28.99 25 29.98 25 31 C19.39 31 13.78 31 8 31 C9 27 9 27 10.05078125 25.12890625 C11.30874072 22.30755682 11.22943848 20.01425927 11.1875 16.9375 C11.18105469 15.89464844 11.17460938 14.85179687 11.16796875 13.77734375 C11.11482965 10.91385392 11.11482965 10.91385392 10 8 C6.45134864 7.91934883 3.41610225 8.05685873 0 9 C0.14053872 11.62538284 0.28718947 14.25017427 0.4375 16.875 C0.47681641 17.62136719 0.51613281 18.36773437 0.55664062 19.13671875 C0.71573624 23.19986864 0.71573624 23.19986864 2 27 C2.99 27.33 3.98 27.66 5 28 C5 28.99 5 29.98 5 31 C-1.27 31 -7.54 31 -14 31 C-14 30.01 -14 29.02 -14 28 C-12.68 27.34 -11.36 26.68 -10 26 C-10 20.06 -10 14.12 -10 8 C-11.32 7.34 -12.64 6.68 -14 6 C-14 5.01 -14 4.02 -14 3 C-12.4188708 2.49307308 -10.83498617 1.99473557 -9.25 1.5 C-7.92742188 1.08234375 -7.92742188 1.08234375 -6.578125 0.65625 C-4 0 -4 0 0 0 Z " fill="#0E7B3D" transform="translate(677,177)"/>
<path d="M0 0 C0.02505615 0.62044189 0.0501123 1.24088379 0.07592773 1.88012695 C0.19196721 4.69112397 0.31465759 7.50179241 0.4375 10.3125 C0.47681641 11.28896484 0.51613281 12.26542969 0.55664062 13.27148438 C0.61948242 14.67817383 0.61948242 14.67817383 0.68359375 16.11328125 C0.72025146 16.97735596 0.75690918 17.84143066 0.79467773 18.73168945 C0.92747354 21.1647826 0.92747354 21.1647826 2 24 C6.14093698 24.20970559 6.14093698 24.20970559 10 23 C10.31241455 20.28553021 10.51336592 17.66090639 10.625 14.9375 C10.66367188 14.17888672 10.70234375 13.42027344 10.7421875 12.63867188 C10.83673562 10.75952805 10.91946756 8.87979664 11 7 C8.525 6.505 8.525 6.505 6 6 C6 5.01 6 4.02 6 3 C7.9363704 2.49564306 9.87414146 1.99666126 11.8125 1.5 C12.89144531 1.2215625 13.97039062 0.943125 15.08203125 0.65625 C18 0 18 0 21 0 C21 8.58 21 17.16 21 26 C22.32 26 23.64 26 25 26 C25 26.99 25 27.98 25 29 C23.23050388 29.50471197 21.45934777 30.00360685 19.6875 30.5 C18.70136719 30.7784375 17.71523437 31.056875 16.69921875 31.34375 C14 32 14 32 11 32 C10.67 30.68 10.34 29.36 10 28 C9.41992188 28.30035156 8.83984375 28.60070312 8.2421875 28.91015625 C4.57874017 30.69351757 1.80358054 31.9848381 -2.3125 32.0625 C-5.91266044 30.63918076 -6.95973855 29.30853207 -9 26 C-9.61665335 22.73315778 -9.69555866 19.50594728 -9.75 16.1875 C-9.77964844 15.30384766 -9.80929687 14.42019531 -9.83984375 13.50976562 C-9.9102039 11.34032782 -9.95740607 9.17016052 -10 7 C-10.66 6.67 -11.32 6.34 -12 6 C-12 5.01 -12 4.02 -12 3 C-10.37604003 2.49663233 -8.75079459 1.99741024 -7.125 1.5 C-6.22007813 1.2215625 -5.31515625 0.943125 -4.3828125 0.65625 C-2 0 -2 0 0 0 Z " fill="#0E7B3D" transform="translate(1046,110)"/>
<path d="M0 0 C3.92804338 3.64746885 6.30616213 7.29235353 6.85546875 12.7109375 C6.61955275 17.83118838 5.06296511 21.32839286 1.484375 24.9921875 C-3.36644442 28.76278243 -8.51566873 29.72962619 -14.5625 29.375 C-19.77371387 28.59937747 -23.42179679 27.06156024 -26.66015625 22.7109375 C-29.22686174 18.34318781 -29.98242404 14.61346589 -29.1015625 9.61328125 C-27.51563993 4.86404001 -24.69032063 1.71887974 -20.328125 -0.6953125 C-13.39892567 -3.4227633 -6.72505831 -3.11345292 0 0 Z M-16.5625 2.5 C-19.30532003 5.43198003 -19.31157436 7.44168451 -19.375 11.4375 C-18.50901207 16.41884649 -17.37799977 20.30252658 -14 24.125 C-11.46254968 25.6607571 -11.46254968 25.6607571 -8.6875 25.3125 C-6.22548935 24.56206118 -6.22548935 24.56206118 -4.375 22.4375 C-2.9192499 16.05459571 -3.539281 11.35299578 -6.375 5.4375 C-8.12594652 2.8469273 -8.12594652 2.8469273 -10.375 1.4375 C-14.18064199 1.14623069 -14.18064199 1.14623069 -16.5625 2.5 Z " fill="#0E7B3D" transform="translate(834.375,179.5625)"/>
<path d="M0 0 C6.21085971 5.15046903 6.21085971 5.15046903 6.80078125 10.140625 C6.98700543 15.74695289 6.33131446 19.81938111 2.5625 24.125 C-2.70918134 28.13147782 -7.81969267 29.38431847 -14.4375 29.125 C-20.07144373 28.01587867 -23.75439601 25.58936847 -27.4375 21.125 C-28.97502988 16.51241035 -29.30454551 11.80448401 -27.7890625 7.12109375 C-25.35491435 2.30480917 -22.2723951 0.36977272 -17.4375 -1.875 C-11.50736685 -3.77506307 -5.39525883 -2.94286845 0 0 Z M-16.6875 2.5625 C-19.29196933 6.37618723 -19.04765552 9.64072446 -18.4375 14.125 C-17.49378668 18.04921796 -16.30242344 21.14077677 -13.625 24.1875 C-10.49835649 25.52749007 -8.63599702 25.16798816 -5.4375 24.125 C-2.77428313 19.99521439 -2.79155367 15.8800989 -3.4375 11.125 C-4.98737133 6.64335237 -6.45239816 3.78173456 -10.4375 1.125 C-14.32070269 0.76607382 -14.32070269 0.76607382 -16.6875 2.5625 Z " fill="#0E7B3D" transform="translate(897.4375,112.875)"/>
<path d="M0 0 C3.32779558 2.39601282 4.73810661 3.41564768 6.125 7.25 C6.78266818 12.62643733 6.82289979 16.85420042 4.375 21.75 C0.32919791 26.24533565 -2.84111151 28.08215061 -8.875 29.25 C-15.25507217 29.35111049 -19.89341181 28.50257529 -24.875 24.25 C-27.77728418 20.94740076 -28.79059053 18.36842552 -29.125 13.9375 C-28.74593263 8.34625624 -27.0646318 5.4396318 -23.125 1.5 C-15.87149995 -3.52165388 -7.83559718 -4.06657575 0 0 Z M-16.5625 3.3125 C-19.12736739 6.0725985 -19.12736739 6.0725985 -19.375 9.5625 C-18.63918709 14.98912022 -17.23468374 19.3276885 -14.0625 23.8125 C-11.87582062 25.54481077 -11.87582062 25.54481077 -8.75 25.1875 C-5.58325068 24.48305313 -5.58325068 24.48305313 -3.875 21.25 C-3.13086677 15.09398877 -3.22721181 9.46112598 -6.875 4.25 C-10.43309701 0.91428405 -12.47248614 0.17365216 -16.5625 3.3125 Z " fill="#0E7B3D" transform="translate(1115.875,179.75)"/>
<path d="M0 0 C2.44809354 1.96839954 2.97825789 2.93477367 4 6 C4.14403348 7.33363703 4.24590423 8.67218046 4.31640625 10.01171875 C4.35830078 10.76904297 4.40019531 11.52636719 4.44335938 12.30664062 C4.48267578 13.09232422 4.52199219 13.87800781 4.5625 14.6875 C4.60568359 15.48478516 4.64886719 16.28207031 4.69335938 17.10351562 C4.79927368 19.06881447 4.90012551 21.03438496 5 23 C5.99 23.33 6.98 23.66 8 24 C6.98059612 26.7801924 6.30279713 27.82814217 3.6875 29.3125 C0.65587688 30.0880315 -1.04017897 29.95994195 -4 29 C-4.66 28.34 -5.32 27.68 -6 27 C-6.845625 27.515625 -7.69125 28.03125 -8.5625 28.5625 C-12.65526982 30.27402192 -14.74888458 30.12293615 -19 29 C-21.64764845 27.32315598 -21.95477045 26.14861139 -22.875 23.125 C-23.03279848 19.18003799 -22.63885311 17.94930642 -20 15 C-17.09182519 13.41122397 -14.07579878 12.2207243 -11 11 C-9.65986503 10.34711373 -8.32416156 9.68470313 -7 9 C-7 7.35 -7 5.7 -7 4 C-8.65 3.67 -10.3 3.34 -12 3 C-12.226875 3.78375 -12.45375 4.5675 -12.6875 5.375 C-14 8 -14 8 -16.4375 9.3125 C-19 10 -19 10 -22 10 C-22.3125 7.25 -22.3125 7.25 -22 4 C-15.94141516 -2.60936528 -8.01296457 -2.87177926 0 0 Z M-13 17 C-13.41746608 20.12635209 -13.41746608 20.12635209 -13 23 C-11.02 23.99 -11.02 23.99 -9 25 C-8.01 24.34 -7.02 23.68 -6 23 C-5.63637182 20.79274927 -5.63637182 20.79274927 -5.8125 18.375 C-5.83957031 17.55773437 -5.86664062 16.74046875 -5.89453125 15.8984375 C-5.92933594 15.27195313 -5.96414063 14.64546875 -6 14 C-9.08148442 14 -10.61107499 15.11400657 -13 17 Z " fill="#0E7B3D" transform="translate(1029,179)"/>
<path d="M0 0 C0.9384375 -0.00515625 1.876875 -0.0103125 2.84375 -0.015625 C5.54047676 0.25404768 7.18949293 0.8767741 9.5 2.25 C9.00168276 5.93754757 8.39932357 7.85490662 5.5 10.25 C2.78775382 8.63731308 0.12647188 7.00098126 -2.5 5.25 C-4.60231241 5.25469206 -4.60231241 5.25469206 -6.5 6.25 C-9.11910994 9.6961973 -9.08298425 14.0798425 -9.5 18.25 C-7.19 18.25 -4.88 18.25 -2.5 18.25 C-2.5 19.9 -2.5 21.55 -2.5 23.25 C-4.81 23.25 -7.12 23.25 -9.5 23.25 C-9.38618103 26.18832645 -9.25943449 29.1251065 -9.125 32.0625 C-9.0940625 32.89587891 -9.063125 33.72925781 -9.03125 34.58789062 C-8.99257813 35.39033203 -8.95390625 36.19277344 -8.9140625 37.01953125 C-8.8826416 37.75792236 -8.8512207 38.49631348 -8.81884766 39.25708008 C-8.59165386 41.56349588 -8.59165386 41.56349588 -6.5 44.25 C-3.93717258 44.97965366 -3.93717258 44.97965366 -1.5 45.25 C-1.5 46.24 -1.5 47.23 -1.5 48.25 C-8.76 48.25 -16.02 48.25 -23.5 48.25 C-23.5 47.26 -23.5 46.27 -23.5 45.25 C-22.18 44.59 -20.86 43.93 -19.5 43.25 C-19.17 36.65 -18.84 30.05 -18.5 23.25 C-20.15 23.25 -21.8 23.25 -23.5 23.25 C-23.5 22.26 -23.5 21.27 -23.5 20.25 C-22.87867188 20.02957031 -22.25734375 19.80914062 -21.6171875 19.58203125 C-18.74025231 17.77200376 -18.54197271 16.16437062 -17.625 12.9375 C-15.55555635 6.71287421 -13.24721929 4.49674377 -7.65625 1.14453125 C-4.98785532 0.03753418 -2.88260889 -0.01583851 0 0 Z " fill="#0E7B3D" transform="translate(865.5,159.75)"/>
<path d="M0 0 C2.6724565 3.72506518 2.45811891 7.25610877 2.53515625 11.73828125 C2.56480469 12.57875 2.59445312 13.41921875 2.625 14.28515625 C2.69547261 16.35235275 2.74260564 18.42032158 2.78515625 20.48828125 C4.10515625 21.14828125 5.42515625 21.80828125 6.78515625 22.48828125 C5.78515625 25.48828125 5.78515625 25.48828125 3.03515625 27.23828125 C-0.45082846 28.5790446 -1.7536169 28.70438798 -5.21484375 27.48828125 C-6.20484375 26.82828125 -7.19484375 26.16828125 -8.21484375 25.48828125 C-8.89546875 26.00390625 -9.57609375 26.51953125 -10.27734375 27.05078125 C-14.12009698 28.93127751 -16.12616617 28.60337513 -20.21484375 27.48828125 C-22.65234375 25.80078125 -22.65234375 25.80078125 -24.21484375 23.48828125 C-24.84526382 19.78456332 -24.63436503 18.13154721 -22.57421875 14.97265625 C-19.86231234 12.11707268 -17.62653802 11.06881711 -13.96484375 9.67578125 C-12.34835937 9.04736328 -12.34835937 9.04736328 -10.69921875 8.40625 C-9.879375 8.10332031 -9.05953125 7.80039063 -8.21484375 7.48828125 C-8.54484375 5.50828125 -8.87484375 3.52828125 -9.21484375 1.48828125 C-10.53484375 1.48828125 -11.85484375 1.48828125 -13.21484375 1.48828125 C-13.37984375 2.27203125 -13.54484375 3.05578125 -13.71484375 3.86328125 C-15.21484375 6.48828125 -15.21484375 6.48828125 -17.12890625 7.265625 C-19.14001074 7.75241177 -21.17748175 8.1268138 -23.21484375 8.48828125 C-23.5837386 2.95485853 -23.5837386 2.95485853 -21.9609375 0.90234375 C-15.40146018 -4.40980567 -6.91225227 -4.71788647 0 0 Z M-14.21484375 15.48828125 C-15.36391495 17.41374565 -15.36391495 17.41374565 -15.21484375 19.48828125 C-14.35694192 21.70599189 -14.35694192 21.70599189 -13.21484375 23.48828125 C-10.34759689 22.91483188 -9.35339225 22.62682975 -7.21484375 20.48828125 C-6.97230562 18.27755148 -6.97230562 18.27755148 -7.08984375 15.86328125 C-7.10789062 15.04601562 -7.1259375 14.22875 -7.14453125 13.38671875 C-7.16773438 12.76023437 -7.1909375 12.13375 -7.21484375 11.48828125 C-9.79218743 11.48828125 -12.28368763 14.03991416 -14.21484375 15.48828125 Z " fill="#0E7B3D" transform="translate(672.21484375,113.51171875)"/>
<path d="M0 0 C7.59 0 15.18 0 23 0 C23 0.99 23 1.98 23 3 C21.7934375 3.433125 21.7934375 3.433125 20.5625 3.875 C17.8673532 4.73262568 17.8673532 4.73262568 17 7 C16.90211733 9.30042747 16.86922357 11.60374193 16.8671875 13.90625 C16.86623077 14.58675415 16.86527405 15.2672583 16.86428833 15.96838379 C16.86360769 17.40747164 16.86545393 18.84656257 16.86962891 20.28564453 C16.87497885 22.49128093 16.86968009 24.6967137 16.86328125 26.90234375 C16.86394205 28.29947962 16.86522326 29.69661536 16.8671875 31.09375 C16.86831543 32.36927734 16.86944336 33.64480469 16.87060547 34.95898438 C16.78897401 37.91860306 16.78897401 37.91860306 18 40 C20.52733235 40.65555119 20.52733235 40.65555119 23 41 C23 42.32 23 43.64 23 45 C15.41 45 7.82 45 0 45 C0 43.68 0 42.36 0 41 C1.65 40.34 3.3 39.68 5 39 C5 27.45 5 15.9 5 4 C3.35 3.67 1.7 3.34 0 3 C0 2.01 0 1.02 0 0 Z " fill="#0E7B3D" transform="translate(581,96)"/>
<path d="M0 0 C3.47894562 3.8765394 5.1875 8.22369408 5.1875 13.4375 C-1.0825 13.7675 -7.3525 14.0975 -13.8125 14.4375 C-11.5384603 20.3623852 -11.5384603 20.3623852 -8 22.0625 C-3.69802745 22.56861442 -2.18554755 20.98602481 1.1875 18.4375 C2.1775 18.4375 3.1675 18.4375 4.1875 18.4375 C3.6337851 22.03274744 2.49620174 23.43929065 -0.375 25.625 C-4.67905954 28.65321332 -7.54267423 29.52114803 -12.8125 29.4375 C-16.6886668 28.40643963 -20.51247578 26.82700937 -22.8125 23.4375 C-25.01949262 17.92001845 -25.24617606 13.14103738 -23.8125 7.4375 C-21.14847935 2.2997459 -18.27989872 -0.12771432 -13 -2.3125 C-8.16003603 -2.86563874 -4.20805575 -2.33780875 0 0 Z M-10.8125 1.4375 C-14.31427065 5.28653548 -14.31427065 5.28653548 -14.8125 10.4375 C-11.8425 10.4375 -8.8725 10.4375 -5.8125 10.4375 C-5.99379815 6.99956661 -5.99379815 6.99956661 -6.8125 3.4375 C-8.74847032 1.92455712 -8.74847032 1.92455712 -10.8125 1.4375 Z " fill="#0E7B3D" transform="translate(775.8125,179.5625)"/>
<path d="M0 0 C2.45807194 3.93291511 2.84204593 7.93712423 3.5625 12.5 C-2.7075 12.5 -8.9775 12.5 -15.4375 12.5 C-12.96510251 18.28394501 -12.96510251 18.28394501 -8.4375 21.5 C-4.93849979 20.73021995 -2.981167 20.043667 -0.4375 17.5 C1.6875 17.875 1.6875 17.875 3.5625 18.5 C-0.29053972 23.82711931 -3.81055859 27.30640455 -10.4375 28.5 C-14.8768907 28.76258873 -17.77372095 28.03390924 -21.3125 25.1875 C-25.64653328 19.70622262 -26.12363395 15.37223051 -25.4375 8.5 C-23.64582407 3.22450977 -20.89569126 0.62073388 -16.4375 -2.5 C-11.11942582 -4.65597602 -4.74062844 -2.91730981 0 0 Z M-11.4375 0.5 C-14.72564599 3.22606304 -14.72564599 3.22606304 -15.6875 7.25 C-15.605 7.9925 -15.5225 8.735 -15.4375 9.5 C-12.4675 9.5 -9.4975 9.5 -6.4375 9.5 C-6.77617462 5.01315799 -6.77617462 5.01315799 -9.5 1.625 C-10.139375 1.25375 -10.77875 0.8825 -11.4375 0.5 Z " fill="#0E7B3D" transform="translate(658.4375,180.5)"/>
<path d="M0 0 C0.01458252 1.29212402 0.02916504 2.58424805 0.04418945 3.91552734 C0.10205022 8.69787633 0.17928317 13.47974839 0.26245117 18.26171875 C0.29575823 20.33358027 0.32377197 22.40553379 0.34643555 24.47753906 C0.37987563 27.45157173 0.43218505 30.42475679 0.48828125 33.3984375 C0.49467117 34.32868744 0.5010611 35.25893738 0.50764465 36.21737671 C0.53733589 37.50848862 0.53733589 37.50848862 0.56762695 38.82568359 C0.57873001 39.58513275 0.58983307 40.34458191 0.60127258 41.12704468 C0.85957248 43.410719 0.85957248 43.410719 4 45 C4 45.99 4 46.98 4 48 C-1.94 48 -7.88 48 -14 48 C-14 47.01 -14 46.02 -14 45 C-12.515 44.505 -12.515 44.505 -11 44 C-11 32.12 -11 20.24 -11 8 C-11.99 7.67 -12.98 7.34 -14 7 C-14 5.68 -14 4.36 -14 3 C-12.4188708 2.49307308 -10.83498617 1.99473557 -9.25 1.5 C-7.92742188 1.08234375 -7.92742188 1.08234375 -6.578125 0.65625 C-4 0 -4 0 0 0 Z " fill="#0E7B3D" transform="translate(643,93)"/>
<path d="M0 0 C0.33 0.99 0.66 1.98 1 3 C1.495 2.46375 1.99 1.9275 2.5 1.375 C5.45120263 -0.24816144 6.10029582 0.00273563 9.25 0.8125 C11.10625 1.4003125 11.10625 1.4003125 13 2 C12.5020163 5.73487777 12.12508244 7.81237635 10 11 C8.88625 10.814375 7.7725 10.62875 6.625 10.4375 C3.17431139 9.68319343 3.17431139 9.68319343 1 11 C1 15.95 1 20.9 1 26 C2.65 26.66 4.3 27.32 6 28 C6 28.99 6 29.98 6 31 C-0.6 31 -7.2 31 -14 31 C-14 30.01 -14 29.02 -14 28 C-13.01 27.67 -12.02 27.34 -11 27 C-10.67 20.73 -10.34 14.46 -10 8 C-11.32 7.67 -12.64 7.34 -14 7 C-13.734375 5.109375 -13.734375 5.109375 -13 3 C-9.11421304 0.56684368 -4.54771913 -0.42634867 0 0 Z " fill="#0E7B3D" transform="translate(739,177)"/>
<path d="M0 0 C2.05558082 2.59181929 1.72254823 4.60570746 1.4375 7.8125 C-1.2271929 8.55269247 -2.96431868 9.01189377 -5.625 8.125 C-7.89674375 6.58607681 -9.69357607 4.81491849 -11.5625 2.8125 C-14.68447478 4.1214572 -14.68447478 4.1214572 -16.5625 6.8125 C-17.29268676 15.37397564 -17.29268676 15.37397564 -13.5625 22.8125 C-12.47281326 24.12130966 -12.47281326 24.12130966 -9.8125 24 C-6.59506076 23.81437851 -4.45493317 23.17364502 -1.5625 21.8125 C-1.5625 21.1525 -1.5625 20.4925 -1.5625 19.8125 C-0.2425 20.4725 1.0775 21.1325 2.4375 21.8125 C-2.65656274 27.04424011 -5.76251972 29.26735963 -12.99609375 29.8359375 C-18.32380138 29.78728264 -21.54722005 27.67656805 -25.5 24.3125 C-28.28951613 20.63917678 -28.14363417 16.82784614 -27.9140625 12.36328125 C-27.24591424 7.51549446 -25.23895195 5.47357804 -21.8125 2.125 C-15.06249593 -2.67788751 -7.53584863 -3.49222254 0 0 Z " fill="#0E7B3D" transform="translate(791.5625,112.1875)"/>
<path d="M0 0 C0.33 1.32 0.66 2.64 1 4 C1.495 3.29875 1.99 2.5975 2.5 1.875 C5 0 5 0 7.046875 0.1796875 C9.05572835 0.69970982 11.03141587 1.34380529 13 2 C12.5020163 5.73487777 12.12508244 7.81237635 10 11 C8.88625 10.79375 7.7725 10.5875 6.625 10.375 C5.42875 10.25125 4.2325 10.1275 3 10 C0.64358476 11.91406662 0.64358476 11.91406662 0.8046875 15.2578125 C0.82789063 16.53398437 0.85109375 17.81015625 0.875 19.125 C0.90207031 21.04699219 0.90207031 21.04699219 0.9296875 23.0078125 C0.95289063 23.99523437 0.97609375 24.98265625 1 26 C2.98 26.66 4.96 27.32 7 28 C7 28.99 7 29.98 7 31 C0.07 31 -6.86 31 -14 31 C-14 30.01 -14 29.02 -14 28 C-13.01 27.67 -12.02 27.34 -11 27 C-9.34502644 23.69005287 -9.89915665 20.00877 -9.9375 16.375 C-9.94201172 15.57320312 -9.94652344 14.77140625 -9.95117188 13.9453125 C-9.96296832 11.96350994 -9.98090395 9.98174567 -10 8 C-11.32 7.67 -12.64 7.34 -14 7 C-14 6.01 -14 5.02 -14 4 C-12.42032193 3.32471777 -10.83608097 2.66010306 -9.25 2 C-8.36828125 1.62875 -7.4865625 1.2575 -6.578125 0.875 C-4 0 -4 0 0 0 Z " fill="#0E7B3D" transform="translate(1051,177)"/>
<path d="M0 0 C0.78761719 0.09023437 1.57523438 0.18046875 2.38671875 0.2734375 C4.3125 0.625 4.3125 0.625 5.3125 1.625 C5.45365161 4.29558851 5.35497107 6.94932238 5.3125 9.625 C4.3225 9.625 3.3325 9.625 2.3125 9.625 C0.125 7.125 0.125 7.125 -1.6875 4.625 C-3.0075 4.955 -4.3275 5.285 -5.6875 5.625 C-4.47770328 9.25439015 -3.49826645 9.61907937 -0.3125 11.5625 C2.97921871 13.57291452 5.28194017 15.30692431 7.3125 18.625 C7.82015975 22.61375521 7.67901975 24.89196051 5.875 28.5 C2.19805584 31.5491732 -1.02673207 31.53376148 -5.6875 31.625 C-6.85732422 31.64820313 -6.85732422 31.64820313 -8.05078125 31.671875 C-9.92970505 31.68522437 -11.80883928 31.65915747 -13.6875 31.625 C-14.0175 28.325 -14.3475 25.025 -14.6875 21.625 C-13.3675 21.625 -12.0475 21.625 -10.6875 21.625 C-10.3575 22.945 -10.0275 24.265 -9.6875 25.625 C-7.3775 25.955 -5.0675 26.285 -2.6875 26.625 C-2.6875 25.305 -2.6875 23.985 -2.6875 22.625 C-4.57022776 21.03539136 -4.57022776 21.03539136 -7 19.75 C-11.05343656 17.20942086 -13.29868112 15.38666474 -14.6875 10.625 C-14.6875 6.59445175 -14.2409908 5.1784908 -11.375 2.3125 C-7.41159477 -0.1761498 -4.61261915 -0.56418813 0 0 Z " fill="#0E7B3D" transform="translate(620.6875,110.375)"/>
<path d="M0 0 C0.99 0 1.98 0 3 0 C3 2.97 3 5.94 3 9 C5.97 9 8.94 9 12 9 C11.67 10.65 11.34 12.3 11 14 C8.36 14 5.72 14 3 14 C3.33 20.27 3.66 26.54 4 33 C8.88214887 32.35355339 8.88214887 32.35355339 12 30 C12.3125 32.25 12.3125 32.25 12 35 C9.31722186 37.92666706 7.3396442 38.90902388 3.5 39.9375 C-0.48656846 40.00868872 -1.99194519 39.57833269 -5 37 C-7.56014716 32.3846482 -7.23008592 27.80841795 -7.125 22.6875 C-7.11597656 21.85154297 -7.10695313 21.01558594 -7.09765625 20.15429688 C-7.07420989 18.10274031 -7.03834266 16.05133223 -7 14 C-7.99 14 -8.98 14 -10 14 C-9.875 12.3125 -9.875 12.3125 -9 10 C-7.51722844 8.74286759 -6.02966007 7.4892316 -4.48828125 6.3046875 C-2.75865108 4.92250237 -2.75865108 4.92250237 -1.3125 2.1875 C-0.879375 1.465625 -0.44625 0.74375 0 0 Z " fill="#0E7B3D" transform="translate(993,169)"/>
<path d="M0 0 C0.99 0 1.98 0 3 0 C3 2.97 3 5.94 3 9 C5.97 9 8.94 9 12 9 C11.67 10.65 11.34 12.3 11 14 C8.36 14 5.72 14 3 14 C3.33 20.27 3.66 26.54 4 33 C8.88214887 32.35355339 8.88214887 32.35355339 12 30 C12.3125 32.25 12.3125 32.25 12 35 C9.31722186 37.92666706 7.3396442 38.90902388 3.5 39.9375 C-0.48656846 40.00868872 -1.99194519 39.57833269 -5 37 C-7.56014716 32.3846482 -7.23008592 27.80841795 -7.125 22.6875 C-7.11597656 21.85154297 -7.10695313 21.01558594 -7.09765625 20.15429688 C-7.07420989 18.10274031 -7.03834266 16.05133223 -7 14 C-7.99 14 -8.98 14 -10 14 C-9.875 12.3125 -9.875 12.3125 -9 10 C-7.51722844 8.74286759 -6.02966007 7.4892316 -4.48828125 6.3046875 C-2.75865108 4.92250237 -2.75865108 4.92250237 -1.3125 2.1875 C-0.879375 1.465625 -0.44625 0.74375 0 0 Z " fill="#0E7B3D" transform="translate(713,169)"/>
<path d="M0 0 C0.99 0 1.98 0 3 0 C3 42.57 3 85.14 3 129 C2.01 129 1.02 129 0 129 C0 86.43 0 43.86 0 0 Z " fill="#0E7B3D" transform="translate(524,81)"/>
<path d="M0 0 C0.02505615 0.74685059 0.0501123 1.49370117 0.07592773 2.26318359 C0.19168213 5.63397267 0.31450128 9.00446783 0.4375 12.375 C0.47681641 13.550625 0.51613281 14.72625 0.55664062 15.9375 C0.61948242 17.61972656 0.61948242 17.61972656 0.68359375 19.3359375 C0.73858032 20.89127197 0.73858032 20.89127197 0.79467773 22.47802734 C0.84164223 24.99425166 0.84164223 24.99425166 2 27 C2.99 27.33 3.98 27.66 5 28 C5 28.99 5 29.98 5 31 C-1.27 31 -7.54 31 -14 31 C-14 30.01 -14 29.02 -14 28 C-12.68 27.34 -11.36 26.68 -10 26 C-10 20.06 -10 14.12 -10 8 C-11.32 7.34 -12.64 6.68 -14 6 C-13.67 5.01 -13.34 4.02 -13 3 C-11.07421875 2.05078125 -11.07421875 2.05078125 -8.6875 1.3125 C-7.90761719 1.06113281 -7.12773438 0.80976563 -6.32421875 0.55078125 C-4 0 -4 0 0 0 Z " fill="#0E7B3D" transform="translate(1080,177)"/>
<path d="M0 0 C2 3 2 3 1.8125 5.5625 C1 8 1 8 -2 10 C-8.56603774 9.43396226 -8.56603774 9.43396226 -10 8 C-10.3125 5.125 -10.3125 5.125 -10 2 C-6.96457461 -1.61916104 -4.32701626 -1.31691799 0 0 Z " fill="#0E7B3D" transform="translate(1124,94)"/>
<path d="M0 0 C2 2 2 2 2.3125 5 C2.1578125 6.485 2.1578125 6.485 2 8 C-1 10 -1 10 -4.5625 9.8125 C-8 9 -8 9 -10 6 C-9.875 3.4375 -9.875 3.4375 -9 1 C-5.92048366 -1.41961998 -3.63199175 -1.14694476 0 0 Z " fill="#0E7B3D" transform="translate(1079,161)"/>
<path d="M0 0 C0.33 1.98 0.66 3.96 1 6 C-1.22230844 7.97538528 -2.58699552 8.93956032 -5.5625 9.375 C-8 9 -8 9 -9.8125 7.8125 C-11.45691281 5.30260677 -11.5875348 3.93767401 -11 1 C-7.05502579 -2.59688825 -4.69422089 -2.07419063 0 0 Z " fill="#0E7B3D" transform="translate(757,95)"/>
</svg>
